<?xml version="1.0" encoding="utf-8"?>
<!-- Generator: Adobe Illustrator 16.0.0, SVG Export Plug-In . SVG Version: 6.00 Build 0)  -->
<!DOCTYPE svg PUBLIC "-//W3C//DTD SVG 1.1//EN" "http://www.w3.org/Graphics/SVG/1.1/DTD/svg11.dtd">
<svg version="1.1" id="Layer_1" xmlns="http://www.w3.org/2000/svg" xmlns:xlink="http://www.w3.org/1999/xlink" x="0px" y="0px"
	 width="100px" height="20px" viewBox="0 0 100 20" enable-background="new 0 0 100 20" xml:space="preserve">
<g>
	<path fill="#FFFFFF" d="M1,13.289h4.74c0.159,0.672,0.449,1.154,0.869,1.447c0.42,0.295,1.046,0.44,1.878,0.44
		c0.697,0,1.245-0.12,1.645-0.358c0.398-0.24,0.598-0.569,0.598-0.989c0-0.671-0.836-1.218-2.508-1.638l-0.769-0.189
		c-1.372-0.354-2.463-0.676-3.275-0.966c-0.812-0.291-1.403-0.562-1.773-0.815c-0.716-0.514-1.252-1.129-1.61-1.845
		C0.438,7.66,0.259,6.844,0.259,5.925c0-1.844,0.694-3.293,2.082-4.346C3.729,0.526,5.638,0,8.068,0
		c2.389,0,4.269,0.504,5.639,1.512c1.372,1.007,2.146,2.452,2.322,4.332h-5.662c-0.092-0.547-0.334-0.956-0.726-1.225
		C9.25,4.349,8.693,4.214,7.969,4.214c-0.639,0-1.115,0.105-1.426,0.316C6.231,4.74,6.076,5.06,6.076,5.49
		c0,0.614,0.816,1.127,2.449,1.54l0.328,0.088l1.073,0.266c2.165,0.546,3.58,1.043,4.245,1.489c0.825,0.547,1.428,1.169,1.807,1.868
		c0.378,0.698,0.568,1.522,0.568,2.473c0,2.054-0.718,3.631-2.154,4.731c-1.436,1.102-3.493,1.652-6.171,1.652
		c-2.468,0-4.423-0.551-5.868-1.652c-1.282-0.977-2.06-2.312-2.343-4C-0.059,13.531,0.197,13.289,1,13.289L1,13.289z"/>
	<path fill="#FFFFFF" d="M38.758,0.491h4.894v11.46c0,1.061,0.221,1.816,0.663,2.266c0.441,0.451,1.179,0.676,2.213,0.676
		c1.009,0,1.73-0.221,2.163-0.662s0.649-1.2,0.649-2.278V1.569c0-0.595,0.482-1.078,1.078-1.078h4.895v11.928
		c0,2.33-0.75,4.108-2.252,5.337s-3.68,1.842-6.533,1.842c-2.869,0-5.061-0.615-6.576-1.848c-1.514-1.232-2.271-3.01-2.271-5.331
		V1.569C37.681,0.974,38.163,0.491,38.758,0.491L38.758,0.491z"/>
	<path fill="#FFFFFF" d="M65.092,5.171c-0.594,0-1.076,0.483-1.076,1.078v1.792h8.092v4.499h-7.016
		c-0.594,0-1.076,0.483-1.076,1.078v5.464h-5.974V1.569c0-0.595,0.483-1.078,1.079-1.078h12.984v4.68H65.092L65.092,5.171z"/>
	<path fill="#FFFFFF" d="M24.524,14.736h2.763c0.917,0,1.569-0.133,1.957-0.403c0.387-0.271,0.581-0.712,0.581-1.327
		s-0.197-1.055-0.593-1.314c-0.396-0.262-1.06-0.393-1.995-0.393h-1.634c-0.595,0-1.078,0.482-1.078,1.078L24.524,14.736
		L24.524,14.736z M18.732,19.081V1.569c0-0.595,0.482-1.078,1.078-1.078h6.542c1.642,0,2.837,0.042,3.586,0.126
		s1.393,0.223,1.932,0.417c0.942,0.353,1.665,0.904,2.165,1.652c0.501,0.749,0.751,1.657,0.751,2.725
		c0,0.841-0.187,1.575-0.562,2.201c-0.374,0.627-0.937,1.142-1.686,1.545c0.985,0.354,1.715,0.884,2.187,1.591
		c0.472,0.707,0.708,1.624,0.708,2.751c0,1.103-0.229,2.062-0.688,2.872c-0.459,0.812-1.126,1.438-2.002,1.875
		c-0.589,0.303-1.264,0.518-2.021,0.645c-0.758,0.125-2.012,0.188-3.764,0.188h-8.226V19.081z M25.602,4.706
		c-0.595,0-1.078,0.482-1.078,1.078v2.129h2.459c0.824,0,1.405-0.122,1.741-0.366s0.505-0.656,0.505-1.237
		c0-0.614-0.181-1.035-0.543-1.262c-0.361-0.227-1.198-0.341-2.51-0.341L25.602,4.706L25.602,4.706z"/>
	<path fill="#FFFFFF" d="M81.191,10.205h3.182c0.238,0,0.432,0.193,0.432,0.431v3.183c0,0.238-0.193,0.433-0.432,0.433h-3.182
		c-0.238,0-0.433-0.192-0.433-0.433v-3.183C80.76,10.397,80.953,10.205,81.191,10.205L81.191,10.205z"/>
	<path fill="#FFFFFF" d="M76.342,10.205h3.182c0.238,0,0.433,0.193,0.433,0.431v3.183c0,0.238-0.192,0.433-0.433,0.433h-3.182
		c-0.238,0-0.432-0.192-0.432-0.433v-3.183C75.91,10.397,76.104,10.205,76.342,10.205L76.342,10.205z"/>
	<path fill="#FFFFFF" d="M81.191,15.055h3.182c0.238,0,0.432,0.193,0.432,0.432v3.183c0,0.238-0.193,0.433-0.432,0.433h-3.182
		c-0.238,0-0.433-0.193-0.433-0.433v-3.183C80.76,15.248,80.953,15.055,81.191,15.055L81.191,15.055z"/>
	<path fill="#FFFFFF" d="M76.342,15.055h3.182c0.238,0,0.433,0.193,0.433,0.432v3.183c0,0.238-0.192,0.433-0.433,0.433h-3.182
		c-0.238,0-0.432-0.193-0.432-0.433v-3.183C75.91,15.248,76.104,15.055,76.342,15.055L76.342,15.055z"/>
	<path fill="#FFFFFF" d="M86.051,10.201h8.036c0.238,0,0.433,0.192,0.433,0.431v8.037c0,0.238-0.193,0.433-0.433,0.433h-8.036
		c-0.238,0-0.431-0.193-0.431-0.433v-8.037C85.62,10.393,85.812,10.201,86.051,10.201L86.051,10.201z"/>
	<path fill="#FFFFFF" d="M86.051,0.49h8.036c0.238,0,0.433,0.193,0.433,0.431v8.037c0,0.238-0.193,0.431-0.433,0.431h-8.036
		c-0.238,0-0.431-0.193-0.431-0.431V0.921C85.62,0.683,85.812,0.49,86.051,0.49L86.051,0.49z"/>
	<path fill="#FFFFFF" d="M76.342,0.49h8.036c0.237,0,0.431,0.193,0.431,0.431v8.037c0,0.238-0.192,0.431-0.431,0.431h-8.036
		c-0.238,0-0.432-0.193-0.432-0.431V0.921C75.91,0.683,76.104,0.49,76.342,0.49L76.342,0.49z"/>
	<path fill="#FFFFFF" d="M98.148,1.55H97.83v0.685h0.329c0.187,0,0.319-0.026,0.401-0.078c0.08-0.051,0.121-0.135,0.121-0.25
		c0-0.125-0.043-0.216-0.127-0.272C98.471,1.578,98.336,1.55,98.148,1.55L98.148,1.55z M98.219,1.297
		c0.287,0,0.504,0.047,0.647,0.142s0.216,0.237,0.216,0.425c0,0.146-0.041,0.269-0.123,0.366c-0.083,0.098-0.199,0.161-0.35,0.19
		l0.463,0.945h-0.438l-0.421-0.882H97.83v0.882h-0.391V1.297H98.219L98.219,1.297z M99.762,2.383c0-0.221-0.037-0.427-0.115-0.62
		C99.57,1.57,99.457,1.4,99.311,1.254c-0.151-0.153-0.324-0.27-0.518-0.35c-0.191-0.08-0.396-0.12-0.615-0.12
		c-0.215,0-0.418,0.039-0.607,0.117c-0.189,0.077-0.356,0.188-0.498,0.333c-0.155,0.157-0.274,0.333-0.358,0.529
		c-0.082,0.196-0.125,0.398-0.125,0.605c0,0.206,0.041,0.404,0.12,0.594c0.081,0.19,0.195,0.361,0.348,0.513
		c0.147,0.152,0.317,0.269,0.512,0.35c0.191,0.082,0.391,0.123,0.596,0.123c0.215,0,0.419-0.04,0.611-0.119s0.367-0.195,0.526-0.346
		c0.148-0.145,0.263-0.312,0.343-0.5C99.723,2.795,99.762,2.594,99.762,2.383L99.762,2.383z M98.17,0.541
		c0.25,0,0.486,0.046,0.708,0.139c0.224,0.093,0.421,0.227,0.595,0.404c0.17,0.171,0.301,0.368,0.391,0.59
		C99.954,1.894,100,2.125,100,2.366c0,0.25-0.046,0.483-0.137,0.702c-0.09,0.219-0.223,0.413-0.396,0.581
		c-0.181,0.174-0.382,0.309-0.605,0.402c-0.223,0.093-0.453,0.14-0.691,0.14c-0.242,0-0.475-0.047-0.693-0.14
		c-0.222-0.093-0.418-0.229-0.594-0.408c-0.174-0.175-0.306-0.372-0.396-0.59c-0.09-0.218-0.137-0.448-0.137-0.687
		c0-0.241,0.047-0.474,0.144-0.7c0.095-0.226,0.231-0.428,0.409-0.607c0.166-0.17,0.357-0.299,0.574-0.387
		C97.691,0.584,97.922,0.541,98.17,0.541L98.17,0.541z"/>
</g>
</svg>
