<svg id="Layer_1" data-name="Layer 1" xmlns="http://www.w3.org/2000/svg" viewBox="0 0 407.97 56.08"><title>Artboard 1</title><path d="M0,28.57C0,12.15,12.53.85,27.51.85c9.79,0,18.15,4.46,22.83,10.8l-7.78,7.92c-3.53-4.25-8.5-7.27-14.4-7.27-8.78,0-15.84,6.84-15.84,16.2A15.49,15.49,0,0,0,28.08,44.41a19.32,19.32,0,0,0,14.76-7.34l8,7.49c-4.61,6.26-13.18,11.23-23.47,11.23C12.1,55.79,0,44.84,0,28.57Z"/><path d="M52.06,35.27c0-11.45,8.5-20.81,21.24-20.81s21.39,9.36,21.39,20.81S86.11,56.08,73.3,56.08,52.06,46.72,52.06,35.27Zm31.32-.07a10,10,0,1,0-20.09,0,10,10,0,1,0,20.09,0Z"/><path d="M98.06,15.54h11V21c1.94-3.53,6.48-6.55,12.46-6.55,7.85,0,15.34,5.26,15.34,16.42V55H125.57V33.83c0-5.83-3.1-9-7.7-9-5,0-8.5,3.74-8.5,9.29V55H98.06Z"/><path d="M140.33,48.81l5.54-7.34a16.29,16.29,0,0,0,11.31,5.18c2.74,0,4.82-1.22,4.82-3.17,0-1.22-.72-2.09-2.45-2.88-2.09-.94-7.42-2.59-9.79-3.74-4.54-2.16-7.06-5.62-7.06-10.44,0-7.13,6-12.17,15.41-12.17a19.91,19.91,0,0,1,14.26,5.47l-5.26,7.35a15.05,15.05,0,0,0-9.22-3.67c-2.52,0-4.1,1.22-4.1,2.81,0,1.3.86,2.45,3.53,3.31a65.87,65.87,0,0,1,9.36,3.6c4.61,2.45,6.7,5.47,6.7,10.08,0,7.27-6.19,12.89-16.2,12.89A22,22,0,0,1,140.33,48.81Z"/><path d="M208.37,52.77A23.87,23.87,0,0,1,196.27,56c-9.22,0-14.11-5.33-14.11-15.91V24.9h-6.26V15.54h6.34v-14h11.23v14h12.67V24.9H193.46V39c0,4.54,1.73,6.7,5.26,6.7a13.7,13.7,0,0,0,6.48-1.94Z"/><path d="M212.54,15.54h10.8v5.11a12,12,0,0,1,10.73-6.19,15.83,15.83,0,0,1,4.9.94L238,26.19a15.36,15.36,0,0,0-5-.86c-5.18,0-9.22,3.1-9.22,11.67V55H212.54Z"/><path d="M242.78,38.08V15.54h11.3V38.15c0,4.46,2.67,7.49,7.2,7.49s7.2-3,7.2-7.49V15.54h11.31V38.08c0,11.52-7.06,17.93-18.51,17.93S242.78,49.52,242.78,38.08Z"/><path d="M284.18,35.2c0-12,8.64-20.67,21.17-20.67,7.92,0,15.19,3.82,18.58,11.23l-9,4.82A11,11,0,0,0,305.57,25,9.94,9.94,0,0,0,295.41,35.2c0,5.9,4.25,10.3,10,10.3a10.5,10.5,0,0,0,9.29-5.54l9.15,5.4c-3.38,6.41-10.37,10.51-18.72,10.51C292.75,55.86,284.18,47.22,284.18,35.2Z"/><path d="M358.85,52.77A23.87,23.87,0,0,1,346.75,56c-9.22,0-14.11-5.33-14.11-15.91V24.9h-6.26V15.54h6.34v-14h11.23v14h12.67V24.9H343.94V39c0,4.54,1.73,6.7,5.26,6.7a13.69,13.69,0,0,0,6.48-1.94Z"/><path d="M379,0V31h-8.81V0Z"/><path d="M382.24,8.4V0H408V8.4h-8.44V31h-8.82V8.4Z"/></svg>